<?xml version="1.0" standalone="no"?>
<!DOCTYPE svg PUBLIC "-//W3C//DTD SVG 20010904//EN"
 "http://www.w3.org/TR/2001/REC-SVG-20010904/DTD/svg10.dtd">
<svg version="1.0" xmlns="http://www.w3.org/2000/svg"
 width="700.000000pt" height="700.000000pt" viewBox="0 0 700.000000 700.000000"
 preserveAspectRatio="xMidYMid meet">

<g transform="translate(0.000000,700.000000) scale(0.100000,-0.100000)"
fill="#000000" stroke="none">
<path d="M213 6990 c-23 -5 -55 -15 -70 -24 -38 -19 -101 -89 -121 -135 -16
-33 -17 -288 -17 -3336 l0 -3300 22 -40 c12 -23 42 -60 66 -82 87 -80 -235
-73 3407 -73 3642 0 3320 -7 3407 73 24 22 54 59 66 82 l22 40 0 3300 c0 3048
-1 3303 -17 3336 -24 55 -87 119 -138 143 l-45 21 -3270 1 c-1799 1 -3289 -2
-3312 -6z m925 -3017 l2 -1873 660 0 660 0 0 -350 0 -350 -1070 0 -1070 0 0
2225 0 2225 408 -2 407 -3 3 -1872z m2632 -883 l0 -1730 -325 0 -325 0 0 1578
0 1578 323 151 c177 83 323 152 325 152 1 1 2 -777 2 -1729z m2043 1704 c173
-28 349 -100 482 -199 261 -195 382 -469 360 -820 -31 -519 -250 -805 -955
-1250 -369 -233 -481 -325 -535 -440 -24 -52 -55 -144 -55 -167 0 -5 353 -8
785 -8 l785 0 0 -275 0 -275 -1089 0 -1089 0 -11 77 c-31 211 -22 449 25 625
13 51 47 138 74 193 123 249 316 427 770 705 436 267 581 415 645 655 24 90
22 253 -4 336 -23 73 -81 167 -132 216 -43 40 -129 80 -205 94 -85 16 -255 6
-334 -20 -191 -61 -341 -244 -404 -492 -14 -52 -28 -93 -33 -92 -15 3 -488
225 -497 234 -15 13 31 175 77 272 158 333 468 560 862 632 102 19 357 18 478
-1z"/>
</g>
</svg>
